<?xml version="1.0" encoding="utf-8"?>
<!-- Generator: Adobe Illustrator 27.0.0, SVG Export Plug-In . SVG Version: 6.00 Build 0)  -->
<svg version="1.1" id="Layer_1" xmlns="http://www.w3.org/2000/svg" xmlns:xlink="http://www.w3.org/1999/xlink" x="0px" y="0px"
	 viewBox="0 0 1920 1080" style="enable-background:new 0 0 1920 1080;" xml:space="preserve">
<style type="text/css">
	.st0{clip-path:url(#SVGID_00000098918018800883750170000016141509206575355803_);}
	.st1{fill:#FFFFFF;}
</style>
<g>
	<g>
		<defs>
			
				<rect id="SVGID_1_" x="420" y="-420" transform="matrix(6.123234e-17 -1 1 6.123234e-17 419.9997 1500.0001)" width="1080" height="1920"/>
		</defs>
		<use xlink:href="#SVGID_1_"  style="overflow:visible;fill:#282828;"/>
		<clipPath id="SVGID_00000163760081293530246920000005325700556995909510_">
			<use xlink:href="#SVGID_1_"  style="overflow:visible;"/>
		</clipPath>
		<g style="clip-path:url(#SVGID_00000163760081293530246920000005325700556995909510_);">
			<g>
				<path class="st1" d="M-64.65,1237.5c-1.31,37.31-1.89,56.01-2.63,93.51c-37.14,0-55.72,0-92.86,0c0-33.58,0-50.37,0-83.95
					C-121.79,1242.3-102.7,1240.43-64.65,1237.5z"/>
				<path class="st1" d="M-56.98,1051.87c-1.56,36.96-2.4,55.48-3.99,92.6c-39.37,5.67-59.2,9.31-99.17,18.65
					c0-33.58,0-50.37,0-83.95C-118.41,1065.43-97.8,1060.1-56.98,1051.87z"/>
				<path class="st1" d="M-51.04,867.81c-0.62,36.68-1.15,55.04-2.38,91.85c-42.09,10.65-63.42,17.58-106.72,35.57
					c0-33.58,0-50.37,0-83.95C-115.73,889.19-93.94,880.72-51.04,867.81z"/>
				<path class="st1" d="M-52.75,685c1.5,36.46,1.89,54.71,2.18,91.27c-42.94,15.06-64.82,25-109.57,51.07c0-33.58,0-50.37,0-83.95
					C-116.11,713.45-94.67,702.09-52.75,685z"/>
				<path class="st1" d="M-70.31,524.36c1.74,29.5,3.34,44.42,8.95,74.64c-38.32,17.8-58.03,29.57-98.78,60.45
					c0-33.58,0-50.37,0-83.95C-122.77,549.89-104.88,539.91-70.31,524.36z"/>
				<path class="st1" d="M-66.25,380.32c-2.6,28.14-3.74,42.37-4.74,71.17c-34.12,12.58-51.86,20.42-89.14,40.06
					c0-33.58,0-50.37,0-83.95C-120.77,394.62-102.1,389.26-66.25,380.32z"/>
				<path class="st1" d="M-51.84,242.84c-2.4,26.88-4.01,40.46-7.08,67.96c-38.6,4.63-58.72,7.19-101.21,12.87
					c0-33.58,0-50.37,0-83.95C-114.62,241.98-93.11,242.54-51.84,242.84z"/>
				<path class="st1" d="M-49.79,111.39c2.34,25.72,2.54,38.72,1.94,65c-42.69-5.83-64.98-9.82-112.29-20.62
					c0-33.58,0-50.37,0-83.95C-113.41,91.75-91.53,99.44-49.79,111.39z"/>
				<path class="st1" d="M-70.16-58.47c2.29,35.84,3.9,53.71,8.57,89.31c-37.18-13.2-56.71-21.57-98.55-42.97
					c0-33.58,0-50.37,0-83.95C-122.07-77.42-104.22-70.09-70.16-58.47z"/>
				<path class="st1" d="M-73.36-238.47c-0.6,36.12-0.74,54.17-0.2,90.18c-33.02-9.84-50.21-16.02-86.57-31.72
					c0-33.58,0-50.37,0-83.95C-124.04-251.36-106.79-246.39-73.36-238.47z"/>
				<path class="st1" d="M-68.28-419.3c-1.02,36.17-1.68,54.27-2.8,90.44c-34.66-5.91-52.39-9.62-89.05-19.04
					c0-33.58,0-50.37,0-83.95C-122.7-425.63-104.38-423.18-68.28-419.3z"/>
				<path class="st1" d="M-67.28-599.74c1.03,35.97,1.08,53.99,0.78,90.09c-37.13-1.89-55.84-3.09-93.64-6.15
					c0-33.58,0-50.37,0-83.95C-122.99-599.74-104.42-599.74-67.28-599.74z"/>
				<path class="st1" d="M124.28,1230.43c-3.11,39.94-4.43,60.05-5.84,100.58c-37.14,0-55.72,0-92.86,0
					c1.21-39.73,2.22-59.49,4.55-98.82C67.91,1230.82,86.74,1230.51,124.28,1230.43z"/>
				<path class="st1" d="M36.78,1134.31c-2.88,38.97-4.31,58.54-6.65,97.88c-37.78,1.37-56.73,2.39-94.78,5.32
					c1.31-37.31,2.1-55.91,3.68-93.03C-21.59,1138.8-2.05,1136.86,36.78,1134.31z"/>
				<path class="st1" d="M143.18,1033.4c-3.85,38.9-5.98,58.47-9.91,97.86c-38.36-0.02-57.65,0.5-96.49,3.04
					c2.88-38.97,4.43-58.37,7.26-97.01C84.06,1033.74,103.87,1033.1,143.18,1033.4z"/>
				<path class="st1" d="M50.44,941.08c-2.19,38.34-3.57,57.58-6.4,96.22c-40.02,3.56-60.2,6.33-101.02,14.57
					c1.56-36.96,2.32-55.4,3.56-92.21C-11.33,949.01,9.42,945.48,50.44,941.08z"/>
				<path class="st1" d="M156.88,841.1c-1.04,38.05-2.2,57.17-5.09,95.62c-40.08-0.74-60.32-0.05-101.34,4.36
					c2.19-38.34,3.1-57.44,4.05-95.52C96.05,840.45,116.5,839.79,156.88,841.1z"/>
				<path class="st1" d="M54.73,750.67c0.87,37.84,0.73,56.81-0.23,94.89c-41.56,5.11-62.64,9.33-105.54,22.25
					c0.62-36.68,0.76-54.98,0.47-91.54C-7.63,761.21,13.4,756.36,54.73,750.67z"/>
				<path class="st1" d="M147.64,652.56c5.33,37.4,6.9,56.16,8.6,93.86c-39.91-2.02-60.18-1.44-101.51,4.25
					c-0.87-37.84-1.79-56.7-5.07-94.34C89.69,650.16,109.25,649.73,147.64,652.56z"/>
				<path class="st1" d="M31.71,568.8c11.53,29.63,14.65,49.89,17.94,87.53C9.61,662.49-10.83,667.91-52.75,685
					c-1.5-36.46-2.99-55.78-8.6-86C-23.03,581.2-4.47,575.48,31.71,568.8z"/>
				<path class="st1" d="M90.92,488.28c6.02,29.19,11.23,44.31,28.87,75.67c-34.33-2.47-51.89-1.83-88.07,4.85
					c-11.53-29.63-14.89-44.08-18.67-72.27C45.22,489.57,60.73,488.16,90.92,488.28z"/>
				<path class="st1" d="M10.9,427.8c-1.69,26.8-1.64,40.54,2.14,68.73c-32.18,6.97-48.78,12.28-83.35,27.83
					c-1.74-29.5-1.69-44.07-0.69-72.87C-36.88,438.91-20.58,434.34,10.9,427.8z"/>
				<path class="st1" d="M99.06,352.65c-7.01,25.11-10.02,38.15-12.21,65.26c-29.36,1.54-44.47,3.34-75.95,9.89
					c1.69-26.8,3.81-39.86,8.71-65.33C52.57,357.03,68.35,355.16,99.06,352.65z"/>
				<path class="st1" d="M33.5,300.42c-5.84,24.18-8.99,36.58-13.89,62.05c-32.96,5.44-50.02,8.92-85.87,17.85
					c2.6-28.14,4.26-42.04,7.33-69.53C-20.32,306.16-1.96,304.1,33.5,300.42z"/>
				<path class="st1" d="M138.27,236.69c-6.41,21.33-10.82,32.44-19.23,55.62c-33.09,2.82-50.07,4.43-85.54,8.11
					c5.84-24.18,8.89-35.95,13.39-58.9C84.77,240.23,102.9,239.2,138.27,236.69z"/>
				<path class="st1" d="M54.11,185.63c-0.89,21.77-2.72,32.94-7.22,55.88c-37.88,1.29-57.48,1.62-98.74,1.32
					c2.4-26.88,3.39-40.16,3.99-66.45C-5.17,182.22,15.06,183.93,54.11,185.63z"/>
				<path class="st1" d="M140.42,138.83c7.82,17.86,8.81,27.2,7.82,46.76c-36.41,1.59-55.07,1.74-94.12,0.04
					c0.89-21.77,0.34-32.36-4.64-53C87.33,137.91,105.33,138.93,140.42,138.83z"/>
				<path class="st1" d="M26.61,54.98c8.74,36.55,17.88,57.02,22.86,77.65c-37.86-5.27-57.52-9.3-99.26-21.25
					c-2.34-25.72-7.13-44.94-11.8-80.54C-24.41,44.05-6.94,48.65,26.61,54.98z"/>
				<path class="st1" d="M85.42-28.84C90.67,8.48,94.7,27,107.07,63.62c-30.98-0.8-46.9-2.3-80.46-8.64
					C17.87,18.43,14.94,0.01,10.95-37.01C41.92-31.27,56.66-29.83,85.42-28.84z"/>
				<path class="st1" d="M5.61-130.02c0.48,37.37,1.35,55.99,5.34,93.01c-30.97-5.74-47.04-9.84-81.11-21.46
					c-2.29-35.84-2.87-53.81-3.41-89.82C-40.54-138.45-24.83-134.96,5.61-130.02z"/>
				<path class="st1" d="M83.93-217.88c-3.42,38.18-4.67,57.22-4.68,95.06c-28.6-0.98-43.21-2.26-73.65-7.2
					c-0.48-37.37,0.1-56.13,1.89-93.73C38.86-219.76,54.04-218.71,83.93-217.88z"/>
				<path class="st1" d="M13.53-317.89c-2.83,37.7-4.24,56.55-6.03,94.14c-31.36-3.99-47.43-6.81-80.86-14.72
					c0.6-36.12,1.16-54.21,2.28-90.39C-36.43-322.95-19.58-320.86,13.53-317.89z"/>
				<path class="st1" d="M107.3-409.41c-4.69,38.31-7.49,57.51-12.47,95.84c-32.01-0.59-48.19-1.36-81.3-4.33
					c2.83-37.7,4.45-56.57,7.08-94.25C55.68-410.22,72.97-409.74,107.3-409.41z"/>
				<path class="st1" d="M25.66-506.19c-1.2,37.54-2.41,56.37-5.05,94.05c-35.07-1.92-52.8-3.29-88.9-7.16
					c1.02-36.17,1.48-54.25,1.78-90.34C-29.36-507.76-10.96-507.1,25.66-506.19z"/>
				<path class="st1" d="M118.44-599.74c1.47,37.7,0.81,56.69-1.73,94.79c-36.25-0.12-54.44-0.33-91.05-1.24
					c1.2-37.54,1.39-56.27-0.08-93.55C62.72-599.74,81.3-599.74,118.44-599.74z"/>
				<path class="st1" d="M311.01,1234.82c-4.04,37.99-5.65,57.21-6.86,96.19c-37.14,0-55.72,0-92.86,0
					c1.4-40.19,2.92-60.08,6.59-99.48C255.22,1232.46,273.84,1233.16,311.01,1234.82z"/>
				<path class="st1" d="M228.66,1133.96c-4.75,38.68-7.1,58.18-10.77,97.58c-37.34-0.92-56.06-1.19-93.6-1.11
					c3.11-39.94,5.06-59.77,8.99-99.16C171.63,1131.29,190.7,1131.92,228.66,1133.96z"/>
				<path class="st1" d="M336.73,1049.35c-5.27,36.26-8.24,54.57-13.63,91.65c-37.61-3.51-56.49-5.01-94.45-7.04
					c4.75-38.68,7.35-57.83,12-95.85C279.35,1041.43,298.55,1043.82,336.73,1049.35z"/>
				<path class="st1" d="M250.93,943.83c-3.37,37.42-5.62,56.26-10.27,94.27c-38.7-3.33-58.18-4.41-97.48-4.7
					c3.85-38.9,5.72-58.23,8.61-96.68C191.86,937.46,211.67,939.06,250.93,943.83z"/>
				<path class="st1" d="M353.8,871.74c-0.58,34.84-1.94,52.41-5.6,87.92c-38.57-7.7-58.01-11.05-97.27-15.82
					c3.37-37.42,4.68-55.98,5.58-92.86C295.87,857.33,315.3,861.72,353.8,871.74z"/>
				<path class="st1" d="M254.45,759.37c2.75,36.41,2.97,54.72,2.06,91.61c-39.36-6.36-59.26-8.56-99.63-9.88
					c1.04-38.05,1.06-56.98-0.64-94.68C196.15,748.43,215.76,751.3,254.45,759.37z"/>
				<path class="st1" d="M332.63,700.4c10.03,33.75,13.23,50.73,17.21,84.98c-37.66-12.47-56.71-17.95-95.4-26.02
					c-2.75-36.41-5.09-54.5-12.67-90.51C278.74,678.75,296.87,685.38,332.63,700.4z"/>
				<path class="st1" d="M203.59,579.54c23.83,34.92,30.61,53.31,38.19,89.32c-36.96-9.89-55.75-13.47-94.14-16.3
					c-5.33-37.4-10.21-57.26-27.85-88.61C154.11,566.42,170.83,569.87,203.59,579.54z"/>
				<path class="st1" d="M234.31,515.56c10.59,36.26,19.55,55.26,49.51,95.12c-31.48-14.91-47.48-21.47-80.24-31.14
					c-23.83-34.92-30.92-51.63-39.25-83.67C192.95,501.57,206.88,505.76,234.31,515.56z"/>
				<path class="st1" d="M158.16,419.26c-2.63,29.26-2.15,44.57,6.18,76.61c-28.61-5.71-43.23-7.47-73.42-7.59
					c-6.02-29.19-6.27-43.25-4.07-70.37C116.21,416.38,130.39,416.82,158.16,419.26z"/>
				<path class="st1" d="M245.09,351.51c-11.12,29.45-15.86,44.98-18.96,77.77c-26.7-5.4-40.21-7.57-67.98-10.02
					c2.63-29.26,6.49-43.2,15.53-69.79C202.79,349.33,216.96,349.83,245.09,351.51z"/>
				<path class="st1" d="M199.57,286.22c-10.91,24.02-16.85,36.65-25.89,63.24c-29.1,0.14-43.92,0.68-74.63,3.19
					c7.01-25.11,11.57-37.16,19.98-60.34C152.13,289.49,168.11,288.29,199.57,286.22z"/>
				<path class="st1" d="M307.65,220.22c-10.12,23.15-17.2,35.47-30.65,61.71c-30.6,1.39-45.96,2.23-77.42,4.3
					c10.91-24.02,16.65-35.39,24.89-56.95C258.19,225.92,274.68,224.05,307.65,220.22z"/>
				<path class="st1" d="M236.99,178.37c-1.03,19.19-4.29,29.36-12.53,50.91c-33.73,3.36-50.82,4.9-86.19,7.41
					c6.41-21.33,8.97-31.54,9.96-51.09C184.64,184,202.23,182.42,236.99,178.37z"/>
				<path class="st1" d="M308.44,119.12c13.59,17.37,15.53,26.74,14.42,46.94c-34.1,5.66-51.11,8.27-85.87,12.31
					c1.03-19.19-0.45-28.2-11.18-45.13C259.23,129.08,275.57,126.04,308.44,119.12z"/>
				<path class="st1" d="M182.41,60.09c15.71,35.98,32.68,56.22,43.41,73.15c-33.42,4.16-50.31,5.5-85.4,5.59
					c-7.82-17.86-20.98-38.6-33.35-75.22C138.05,64.42,152.94,63.49,182.41,60.09z"/>
				<path class="st1" d="M223.45-40.92c7.04,36.02,12.89,53.8,31.8,88.64c-28.98,6.27-43.38,8.96-72.84,12.37
					c-15.71-35.98-20.68-54.26-26.9-91.18C182.96-33.7,196.4-35.86,223.45-40.92z"/>
				<path class="st1" d="M149.24-124.32c-0.8,37.62,0.04,56.3,6.26,93.22c-27.46,2.61-41.32,3.25-70.08,2.26
					c-5.25-37.32-6.18-56.15-6.17-93.99C107.86-121.84,121.73-122.3,149.24-124.32z"/>
				<path class="st1" d="M229.53-225.11c-7.42,37.45-10.35,56.1-12.08,92.99c-27.17,4.07-40.69,5.78-68.2,7.8
					c0.8-37.62,2.85-56.59,8.2-94.66C186.46-220.54,200.78-221.9,229.53-225.11z"/>
				<path class="st1" d="M173.93-314.45c-7.43,38.28-11.14,57.41-16.49,95.48c-29.02,1.57-43.62,1.92-73.51,1.09
					c3.42-38.18,5.91-57.35,10.89-95.68C126.83-312.97,142.58-313.24,173.93-314.45z"/>
				<path class="st1" d="M277.03-413.41c-9.52,37.67-15.05,56.57-25.07,94.29c-31.15,2.44-46.68,3.47-78.03,4.67
					c7.43-38.28,11.56-57.46,18.59-95.69C226.42-411.01,243.27-411.73,277.03-413.41z"/>
				<path class="st1" d="M207.04-505.45c-4.17,37.96-7.48,57.06-14.52,95.3c-33.9,0.86-50.89,1.08-85.22,0.74
					c4.69-38.31,6.88-57.45,9.42-95.54C152.96-504.83,171-504.96,207.04-505.45z"/>
				<path class="st1" d="M304.16-599.74c0.73,36.66-1.22,55.22-7.16,92.54c-35.96,0.89-53.93,1.28-89.97,1.76
					c4.17-37.96,5.43-56.86,4.26-94.29C248.44-599.74,267.01-599.74,304.16-599.74z"/>
				<path class="st1" d="M496.19,1245.17c-4.34,33.66-5.95,50.81-6.32,85.85c-37.14,0-55.72,0-92.86,0
					c0.85-37.17,2.49-55.43,6.74-91.42C440.79,1241.71,459.27,1242.87,496.19,1245.17z"/>
				<path class="st1" d="M416.78,1151.02c-5.87,34.89-8.77,52.59-13.02,88.58c-37.03-2.11-55.57-3.12-92.74-4.77
					c4.04-37.99,6.7-56.74,12.09-93.82C360.72,1144.5,379.44,1146.6,416.78,1151.02z"/>
				<path class="st1" d="M525.63,1083.14c-6.06,31.23-9.56,47.11-15.8,79.5c-37.12-4.78-55.72-7.2-93.06-11.62
					c5.87-34.89,9.14-52.07,14.87-85.97C469.41,1071.94,488.19,1075.7,525.63,1083.14z"/>
				<path class="st1" d="M443.91,981.43c-3.8,33-6.55,49.71-12.27,83.61c-37.76-6.9-56.73-10.18-94.91-15.7
					c5.27-36.26,7.8-54.18,11.47-89.69C386.77,967.36,405.89,971.9,443.91,981.43z"/>
				<path class="st1" d="M542.96,932.13c0.51,29.25-0.75,44.08-4.56,74.27c-37.59-10.26-56.47-15.44-94.49-24.97
					c3.8-33.01,5.14-49.29,5.24-81.49C486.96,912.25,505.69,918.92,542.96,932.13z"/>
				<path class="st1" d="M442.92,820.33c5.38,31.5,6.33,47.41,6.23,79.61c-37.81-12.31-56.85-18.18-95.35-28.2
					c0.58-34.84,0.03-52.1-3.96-86.35C387.51,797.85,406.09,805.12,442.92,820.33z"/>
				<path class="st1" d="M506.76,789.91c15.36,27.72,20.49,41.73,27.38,70.16c-36.19-16.3-54.4-24.52-91.23-39.73
					c-5.38-31.5-9.51-47.08-22.14-77.97C455.56,760.58,472.72,770.41,506.76,789.91z"/>
				<path class="st1" d="M361.22,652.47c35.94,45.71,46.92,59,59.55,89.89c-34.79-18.22-52.38-26.94-88.14-41.96
					c-10.03-33.75-18.85-49.86-48.81-89.72C315.3,625.59,330.74,634.28,361.22,652.47z"/>
				<path class="st1" d="M367.97,576.35c14.52,46.96,26.9,71.66,68.53,123.67c-29.78-19.51-44.79-29.35-75.28-47.54
					c-35.94-45.71-46.68-67.45-59.37-108.84C328.52,556.04,341.67,562.83,367.97,576.35z"/>
				<path class="st1" d="M292.08,445.4c-3.74,37.23-2.92,56.85,9.77,98.24c-26.66-12.41-40.1-18.27-67.54-28.07
					c-10.59-36.26-11.28-53.49-8.18-86.28C252.83,434.68,265.93,438.07,292.08,445.4z"/>
				<path class="st1" d="M384.62,365.67c-15.88,37.43-22.67,57.27-27.32,99.38c-26.12-8.23-39.08-12.33-65.22-19.65
					c3.74-37.22,9.43-54.8,22.79-88.02C342.67,360.31,356.52,362.06,384.62,365.67z"/>
				<path class="st1" d="M353.2,279.19c-16.17,29.36-24.97,44.97-38.33,78.19c-27.8-2.93-41.65-4.19-69.78-5.87
					c11.12-29.45,18.45-43.34,31.9-69.58C307.59,280.54,322.71,280.01,353.2,279.19z"/>
				<path class="st1" d="M473.77,200.87c-14.48,28.61-24.54,43.96-43.7,76.89c-31.14,0.34-46.39,0.61-76.88,1.42
					c16.17-29.36,24.67-43.09,36.83-68.75C423.1,206.51,439.71,204.53,473.77,200.87z"/>
				<path class="st1" d="M408.32,150.75c-1.34,22.12-6.14,34.03-18.3,59.69c-33.08,3.93-49.41,5.95-82.38,9.78
					c10.12-23.15,14.11-33.96,15.21-54.16C356.96,160.39,373.89,157.19,408.32,150.75z"/>
				<path class="st1" d="M476.44,78.33c18.71,20.52,21.27,31.73,19.41,56.21c-35.76,6.38-53.1,9.76-87.53,16.2
					c1.34-22.12-0.98-32.3-17.27-51.02C424.47,91.35,441.36,86.86,476.44,78.33z"/>
				<path class="st1" d="M328.2,29.85c22.11,33.39,46.56,51.15,62.85,69.87c-33.42,8.37-49.76,12.47-82.62,19.39
					c-13.59-17.37-34.28-36.55-53.19-71.4C284.23,41.45,298.64,37.66,328.2,29.85z"/>
				<path class="st1" d="M361.88-71.87C370.74-38.41,378.43-22,403.9,9.82c-31.18,8-46.14,12.23-75.7,20.03
					c-22.11-33.39-28.84-50.52-36.71-85.32C319.03-61.85,332.95-65.32,361.88-71.87z"/>
				<path class="st1" d="M285.74-143.85c-2.66,35.84-2.12,53.58,5.75,88.38c-27.54,6.38-41,9.48-68.04,14.54
					c-7.04-36.02-7.73-54.31-6-91.2C244.62-136.18,258.16-138.69,285.74-143.85z"/>
				<path class="st1" d="M375.4-244.9c-11.38,35.47-15.99,53.09-19.41,87.77c-28.74,5.3-42.66,8.12-70.25,13.28
					c2.66-35.85,6.46-54.01,15.94-90.53C330.75-238.47,345.4-240.7,375.4-244.9z"/>
				<path class="st1" d="M330.05-326.16c-12.6,36.83-18.89,55.25-28.37,91.77c-29.07,4.09-43.4,6.07-72.15,9.28
					c7.42-37.45,12.42-56.31,22.43-94.02C283.11-321.56,298.65-323.06,330.05-326.16z"/>
				<path class="st1" d="M446.89-423.71c-14.33,35.77-22.57,53.76-37.59,89.59c-32.09,3.18-47.86,4.87-79.26,7.96
					c12.6-36.83,19.52-55.31,31.52-92.09C395.49-420.37,412.51-421.53,446.89-423.71z"/>
				<path class="st1" d="M386.98-509.75c-7.71,36.36-13.41,54.72-25.41,91.5c-33.92,2.12-50.78,3.15-84.54,4.84
					c9.52-37.67,14.03-56.48,19.97-93.79C332.96-508.1,350.94-508.64,386.98-509.75z"/>
				<path class="st1" d="M489.87-599.74c0.02,34.36-3.2,51.86-12.52,87.14c-36.28,1.14-54.33,1.74-90.37,2.85
					c7.71-36.36,10.33-54.42,10.03-89.99C434.16-599.74,452.73-599.74,489.87-599.74z"/>
				<path class="st1" d="M702.41,1264.25c-11.09,25.94-16.68,39.27-26.82,66.77c-37.14,0-55.72,0-92.86,0
					c2.74-31.69,5.41-47.12,11.64-77.28C638.19,1259.04,659.75,1261.1,702.41,1264.25z"/>
				<path class="st1" d="M612.2,1180.1c-7.69,28.77-11.59,43.47-17.83,73.63c-43.81-5.31-61.26-6.27-98.18-8.56
					c4.34-33.66,7.41-50.14,13.64-82.53C546.96,1167.42,563.93,1169.46,612.2,1180.1z"/>
				<path class="st1" d="M754.58,1141.42c-8.85,23.3-14.02,35.22-24.69,59.76c-45.96-6.3-69.42-10.44-117.69-21.08
					c7.69-28.77,11.81-42.81,18.9-70.31C682.28,1125.76,706.85,1131.96,754.58,1141.42z"/>
				<path class="st1" d="M645.95,1042.46c-4.45,26.38-7.76,39.82-14.85,67.33c-51.18-15.97-68.02-19.21-105.47-26.65
					c6.06-31.23,8.96-46.56,12.77-76.74C575.99,1016.66,592.73,1021.2,645.95,1042.46z"/>
				<path class="st1" d="M781.75,1030.16c-1.09,21.31-3.07,32.16-8.73,54.39c-48.61-12.58-73.85-20.83-127.06-42.09
					c4.45-26.38,5.92-39.29,5.68-64.67C706.67,1004.27,732.47,1014.54,781.75,1030.16z"/>
				<path class="st1" d="M643.03,915.44c6.98,24.52,8.36,36.97,8.6,62.35c-55.04-26.48-71.39-32.44-108.66-45.65
					c-0.51-29.25-1.92-43.64-8.82-72.07C570.33,876.36,585.72,883.84,643.03,915.44z"/>
				<path class="st1" d="M756.28,927.21c12.2,19.98,16.18,30.08,21.04,50.64c-50.39-18.58-76.99-30.81-134.29-62.41
					c-6.98-24.52-12.24-36.57-28-60.36C675.71,891.67,703.66,905.81,756.28,927.21z"/>
				<path class="st1" d="M541.83,766.56c43.86,58.1,57.43,64.72,73.19,88.52c-60.69-36.59-74.22-45.68-108.26-65.17
					c-15.35-27.72-28.62-37.89-70.26-89.89C466.29,719.52,476.27,728.4,541.83,766.56z"/>
				<path class="st1" d="M630.15,696.68c11.7,49.44,35.88,102.54,64.61,145.69c-52.64-20.7-105.07-47.29-152.92-75.81
					c-31.38-39.56-59.13-90.72-72.24-138.25C520.95,653.91,575.44,677.47,630.15,696.68z"/>
				<path class="st1" d="M458.16,503.62c-4.79,47.25-3.9,72.15,11.43,124.69c-68.02-33.26-75.33-38.45-101.62-51.96
					c-14.52-46.96-15.33-69.19-10.67-111.3C383.42,473.28,390.76,475.24,458.16,503.62z"/>
				<path class="st1" d="M641.53,444.84c-13.54,45.6-19.37,69.47-22.89,119.75c-54.28-17.96-108.22-38.67-160.48-60.97
					c4.79-47.25,11.86-69.57,28.38-111.81C537.75,410.4,589.49,428.23,641.53,444.84z"/>
				<path class="st1" d="M533.73,292.18c-19.84,37.51-30.68,57.39-47.19,99.63c-64.62-23.28-73.81-22.52-101.92-26.13
					c15.88-37.43,26.29-54.98,45.45-87.91C461.21,277.43,473.13,274.45,533.73,292.18z"/>
				<path class="st1" d="M715.71,237.25c-11.14,37.77-19.51,57.46-35.59,98.9c-56.61-17.25-85.79-26.24-146.39-43.97
					c19.84-37.51,30.24-55.09,45-88.13C634.98,215.55,662.33,222.5,715.71,237.25z"/>
				<path class="st1" d="M600.56,126.73c-1.29,28.86-7.06,44.28-21.82,77.32c-56.25-11.5-70.9-6.84-104.96-3.18
					c14.48-28.61,20.22-41.85,22.08-66.33C531.61,128.17,548.07,122.37,600.56,126.73z"/>
				<path class="st1" d="M703.11,63.77c21.17,31.96,25.23,48.5,26.5,83.11c-50.74-11.34-76.56-15.79-129.05-20.15
					c1.29-28.86-1.78-42.25-22.36-67.2C628.44,55.6,653.49,56.99,703.11,63.77z"/>
				<path class="st1" d="M498.88-10.57c28.2,30.63,58.73,45.15,79.31,70.1c-50.25,3.93-66.68,10.28-101.76,18.81
					c-18.71-20.52-47.07-36.7-72.54-68.51C435.07,1.82,448.83-3.74,498.88-10.57z"/>
				<path class="st1" d="M570.37-93.95c14.13,33.12,24.29,49.35,53.45,80.61c-49.83-4.08-74.89-4.06-124.94,2.77
					c-28.2-30.63-37.04-46.5-47.84-78.95C498.84-96.2,522.77-96.63,570.37-93.95z"/>
				<path class="st1" d="M441.28-172.36c-2.26,33.74-1.03,50.4,9.77,82.84c-47.8,6.68-60.24,11.1-89.17,17.65
					c-8.86-33.46-9.32-50.58-5.9-85.26C384.72-162.43,397.53-165.86,441.28-172.36z"/>
				<path class="st1" d="M556.27-264.97c-6.36,34.85-8.04,52.27-5.75,86.59c-43.59-1.3-65.49-0.47-109.24,6.03
					c2.26-33.74,6.47-50.92,17.42-85.44C497.78-263.94,517.33-265.07,556.27-264.97z"/>
				<path class="st1" d="M492.44-344.55c-15.31,34.79-22.78,52.23-33.74,86.75c-39.07,6.14-53.31,8.69-83.31,12.89
					c11.38-35.47,18.89-53.38,33.91-89.21C441.39-337.3,457.53-339.09,492.44-344.55z"/>
				<path class="st1" d="M612.65-437.99c-14.06,33.92-21.2,51.22-33,85.93c-34.82,0.78-52.29,2.06-87.2,7.52
					c15.31-34.79,23.87-52.23,39.17-86.77C564.05-435.62,580.27-436.81,612.65-437.99z"/>
				<path class="st1" d="M565.33-516.81c-10.95,33.77-18.42,50.96-33.72,85.49c-32.44,4.31-50.33,5.43-84.72,7.61
					c14.33-35.77,21.14-53.62,30.46-88.9C513.63-513.74,532.54-514.27,565.33-516.81z"/>
				<path class="st1" d="M675.59-599.74c-8.99,30.34-15.18,46.17-28.3,78.63c-32.76,0.98-49.16,1.76-81.96,4.3
					c10.95-33.77,15.15-50.44,17.4-82.93C619.88-599.74,638.45-599.74,675.59-599.74z"/>
				<path class="st1" d="M911.44,1270.53c-17.98,23.39-28.02,35.45-50.13,60.48c-37.14,0-55.72,0-92.86,0
					c16.51-25.37,24.51-37.61,39.43-61.37C849.65,1270.86,870.31,1270.99,911.44,1270.53z"/>
				<path class="st1" d="M842.45,1212.03c-12.62,22.36-19.65,33.85-34.57,57.61c-41.76-1.22-62.81-2.25-105.47-5.39
					c11.09-25.94,16.82-38.52,27.48-63.06C775.85,1207.49,798.28,1209.57,842.45,1212.03z"/>
				<path class="st1" d="M980.4,1160.48c-9.57,20.78-15.42,31.42-29.22,53.4c-42.9,0.9-64.56,0.61-108.73-1.85
					c12.62-22.36,18.32-33.19,27.91-54.33C915.4,1161.39,937.28,1161.82,980.4,1160.48z"/>
				<path class="st1" d="M889.83,1106.17c-5.86,20.12-9.87,30.39-19.47,51.53c-45.04-3.69-68.07-6.82-115.79-16.28
					c8.85-23.3,12.77-34.65,18.44-56.87C821.62,1097.13,844.81,1101.28,889.83,1106.17z"/>
				<path class="st1" d="M1006.78,1061.23c-0.95,19.07-2.51,28.74-7.8,48.55c-42.47,1.82-64.13,1.26-109.15-3.62
					c5.86-20.12,7.82-29.93,9.22-49.22C943.85,1062.95,965.18,1063.61,1006.78,1061.23z"/>
				<path class="st1" d="M896.25,1009.56c3.77,18.65,4.21,28.1,2.81,47.39c-44.79-6.01-68.04-11.16-117.31-26.79
					c1.09-21.31,0.44-31.75-4.43-52.31C827.71,996.43,851.23,1002.52,896.25,1009.56z"/>
				<path class="st1" d="M989.51,968.32c7.89,18.25,10.71,27.4,14.15,45.94c-41.18,3.02-62.41,2.33-107.42-4.71
					c-3.77-18.65-6.98-27.83-16.64-46.04C925.95,971.45,947.63,972.12,989.51,968.32z"/>
				<path class="st1" d="M828.84,881.76c33.09,60.84,41.11,63.55,50.77,81.76c-46.35-7.94-70.71-14.91-123.33-36.31
					c-12.2-19.98-22.57-23.68-61.53-84.84C751.84,865.13,778.35,872.73,828.84,881.76z"/>
				<path class="st1" d="M905.82,751.92c8.7,51.89,16.34,79.12,42.93,136.96c-45.76,3.05-69.43,1.9-119.92-7.12
					c-24.89-43.89-44.95-95.99-54.57-144.67C829.14,747.97,855.19,750.78,905.82,751.92z"/>
				<path class="st1" d="M765.08,606.05c-3.22,49.93-2.48,76.02,9.18,131.03c-54.88-10.89-83.44-18.81-144.12-40.4
					c-13.98-55.47-15.03-81.8-11.51-132.09C679.82,585.04,708.9,593.28,765.08,606.05z"/>
				<path class="st1" d="M918.9,516.59c-10.17,42.89-14.77,65.14-18.33,112.04c-52.41-5.35-79.3-9.82-135.49-22.58
					c3.22-49.93,8.27-73.66,19.81-119.25C840.21,501.23,866.86,507.26,918.9,516.59z"/>
				<path class="st1" d="M817.29,377.5c-13.29,41.98-20.86,63.72-32.4,109.31c-55.32-14.42-83.84-22.89-143.36-41.96
					c13.54-45.6,22.51-67.26,38.59-108.69C736.73,353.4,764.07,361.86,817.29,377.5z"/>
				<path class="st1" d="M969.88,316.54c-6.47,37.78-12.04,56.99-23.18,96.83c-50.41-12.88-76.2-20.24-129.41-35.88
					c13.29-41.98,20.1-62.1,28.58-101.22C896.66,292.44,921.42,300.8,969.88,316.54z"/>
				<path class="st1" d="M854.24,181.31c2.88,36.99,0.11,55.86-8.37,94.97c-50.79-16.16-76.77-24.28-130.16-39.03
					c11.14-37.77,15.17-55.76,13.9-90.37C780.36,158.22,805.29,165.53,854.24,181.31z"/>
				<path class="st1" d="M945.96,132.31c19.8,36.56,24.53,54.67,28.38,91.35c-47.11-17.68-71.14-26.57-120.09-42.35
					c-2.88-36.99-7.44-54.98-28.24-90.58C874.63,104.98,898.69,113.83,945.96,132.31z"/>
				<path class="st1" d="M747.65,7.2C777.72,40.43,805.2,55.13,826,90.73c-48.63-14.25-73.27-20.18-122.89-26.96
					c-21.17-31.96-50.12-45.85-79.29-77.11C673.65-9.26,698.49-4.62,747.65,7.2z"/>
				<path class="st1" d="M805.24-49.65c20.54,38.01,33.2,56.73,64.05,92.8c-48.07-16.4-72.47-24.11-121.63-35.94
					c-30.07-33.22-41.51-50.48-58.91-85.6C735.78-69.09,759.14-62.88,805.24-49.65z"/>
				<path class="st1" d="M658.96-167.75c6.77,36.22,12.39,54.22,29.78,89.35c-47.04-9.31-70.77-12.88-118.37-15.55
					c-14.13-33.12-17.57-50.11-19.85-84.43C594.11-177.08,615.85-174.58,658.96-167.75z"/>
				<path class="st1" d="M748.88-243.87c2.59,39.04,5.84,58.75,16.96,97.75c-42.33-10.09-63.76-14.8-106.88-21.63
					c-6.77-36.22-7.58-54.57-5.76-91.07C691.76-254.3,710.94-251.01,748.88-243.87z"/>
				<path class="st1" d="M666.37-349.58c-8.37,35.97-11.35,54.26-13.17,90.76c-38.56-4.52-57.99-6.05-96.93-6.15
					c6.36-34.85,11.56-52.37,23.37-87.09C614.46-352.84,631.83-352.12,666.37-349.58z"/>
				<path class="st1" d="M773.45-433.63c-11.83,36.23-16.24,55.01-21.3,93.12c-34.06-4.5-51.25-6.54-85.78-9.08
					c8.37-35.97,14.11-53.79,27-88.43C725.54-436.98,741.58-435.96,773.45-433.63z"/>
				<path class="st1" d="M729.09-522.07c-15.36,32.48-22.84,49.43-35.73,84.06c-32.18-1.02-48.35-1.17-80.72,0.02
					c14.06-33.92,21.52-50.65,34.65-83.11C680.05-522.08,696.42-522.2,729.09-522.07z"/>
				<path class="st1" d="M861.31-599.74c-22.72,29.58-33.02,45.52-50.74,78.9c-32.51-0.78-48.82-1.1-81.48-1.23
					c15.36-32.48,23.57-48.15,39.36-77.67C805.59-599.74,824.17-599.74,861.31-599.74z"/>
				<path class="st1" d="M1115.37,1261.29c-22.84,27.05-36.29,40.95-68.34,69.72c-37.14,0-55.72,0-92.86,0
					c27.21-26.25,39.01-38.9,59.55-63.47C1054.46,1265.66,1074.75,1264.37,1115.37,1261.29z"/>
				<path class="st1" d="M1057.36,1207.96c-14.48,23.14-23.1,35.02-43.64,59.59c-40.74,1.89-61.16,2.53-102.28,2.99
					c17.98-23.39,25.94-34.68,39.74-56.66C994.08,1212.98,1015.23,1211.71,1057.36,1207.96z"/>
				<path class="st1" d="M1190.95,1132.95c-8.24,24.47-13.77,36.94-28.67,62.56c-41.89,6.12-62.79,8.69-104.92,12.45
					c14.48-23.14,20.23-34.37,29.26-56.35C1128.6,1145.98,1149.34,1142.13,1190.95,1132.95z"/>
				<path class="st1" d="M1103.03,1097.87c-4.2,21.06-7.38,31.76-16.41,53.74c-41.98,5.63-63.09,7.53-106.22,8.87
					c9.57-20.78,13.29-30.88,18.58-50.69C1041.45,1107.96,1062.09,1105.41,1103.03,1097.87z"/>
				<path class="st1" d="M1206.33,1014.66c1.24,23.03,1.1,34.63-1.77,58.24c-40.45,12.27-60.59,17.43-101.53,24.97
					c4.2-21.06,5.12-31.37,5.1-51.76C1147.83,1036.59,1167.25,1030.09,1206.33,1014.66z"/>
				<path class="st1" d="M1103.44,995.68c3.63,19.99,4.67,30.03,4.69,50.43c-39.7,9.52-59.75,12.75-101.35,15.13
					c0.95-19.07,0.33-28.42-3.11-46.97C1044.85,1011.24,1064.54,1007.28,1103.44,995.68z"/>
				<path class="st1" d="M1187.07,900.74c5.61,22.72,8.3,34.03,12.36,56.77c-38.16,18.69-57.1,26.57-95.99,38.17
					c-3.63-19.99-6.32-29.89-12.94-49.72C1129.71,932.15,1148.72,922.82,1187.07,900.74z"/>
				<path class="st1" d="M1059.17,867.89c19.76,52.86,24.7,58.24,31.32,78.07c-39.21,13.81-59.11,18.57-100.99,22.37
					c-7.89-18.25-14.17-21.6-40.76-79.45C994.51,885.83,1016.28,881.35,1059.17,867.89z"/>
				<path class="st1" d="M1146.72,714.49c2.13,40.39,5.1,61.84,18.04,108.44c-41.89,22.22-62.7,31.49-105.59,44.95
					c-19.76-52.87-25.08-77.52-30.49-124.3C1076.61,735.94,1099.96,729.96,1146.72,714.49z"/>
				<path class="st1" d="M1028.17,633c-4.21,41.89-4.9,63.81,0.52,110.59c-47.92,7.65-72.24,9.47-122.86,8.33
					c-8.7-51.89-8.81-76.38-5.25-123.28C952.98,633.98,978.3,634.81,1028.17,633z"/>
				<path class="st1" d="M1167.94,535.27c-8.08,32.26-12.11,48.92-16.99,84.53c-48.56,8.71-72.91,11.39-122.78,13.2
					c4.21-41.89,8.53-61.67,17.65-99.88C1095.48,536.92,1119.75,537.43,1167.94,535.27z"/>
				<path class="st1" d="M1069.84,440.93c-9.31,35.74-14.9,53.98-24.02,92.19c-49.66-3.81-74.89-7.19-126.92-16.52
					c10.17-42.89,16.67-63.37,27.81-103.22C997.11,426.25,1021.64,431.95,1069.84,440.93z"/>
				<path class="st1" d="M1202.17,382.33c-3.08,29.87-6.51,44.63-13.99,74.98c-46.57-3.94-70.14-7.41-118.34-16.38
					c9.31-35.74,13.81-53.04,18.58-87.51C1134.83,366.89,1157.54,372.97,1202.17,382.33z"/>
				<path class="st1" d="M1089.76,267.59c4.49,34.4,3.43,51.37-1.34,85.83c-46.41-13.47-70.08-21.15-118.54-36.88
					c6.47-37.78,8.3-56.19,4.45-92.88C1021.45,241.34,1044.54,250.55,1089.76,267.59z"/>
				<path class="st1" d="M1173.38,226.95c17.13,33.23,21.9,48.95,27.03,79.79c-43.28-13.86-65.42-22.11-110.64-39.15
					c-4.49-34.4-9.24-51.63-27.71-87.17C1107.6,199.89,1129.93,209.73,1173.38,226.95z"/>
				<path class="st1" d="M987.64,86.54c31.43,39.33,55.95,58.34,74.41,93.88c-45.54-19.47-68.83-29.63-116.1-48.11
					c-19.8-36.56-45.83-53.1-76.67-89.17C917.36,59.54,941.1,68.75,987.64,86.54z"/>
				<path class="st1" d="M1028.87,20.23c26.21,44.61,41,66.67,72.77,109.25c-44.58-16.02-67.45-25.14-114-42.93
					c-31.43-39.33-45.22-59.73-68.72-101.05C963.71-0.08,985.76,7.32,1028.87,20.23z"/>
				<path class="st1" d="M870.37-119.17c15.29,42.22,25.05,63.33,48.55,104.66c-44.79-14.43-67.59-21.91-113.68-35.14
					c-20.54-38.01-28.28-57.47-39.4-96.47C808.17-136.03,829.13-130.26,870.37-119.17z"/>
				<path class="st1" d="M933.99-205.72c10.79,44.93,18.59,67.78,37.8,113.17c-39.84-9.83-60.18-15.53-101.42-26.62
					c-15.29-42.21-20.88-63.5-27.69-105.5C879.75-216.73,898.05-212.64,933.99-205.72z"/>
				<path class="st1" d="M836.53-328.23c-1.94,40.67-0.66,61.57,6.15,103.57c-37.06-7.93-55.87-12.08-93.8-19.21
					c-2.59-39.04-1.79-58.52,3.27-96.63C786.22-336.01,803.12-333.33,836.53-328.23z"/>
				<path class="st1" d="M930.52-420.73c-10.35,40.24-12.41,61.36-11.47,104.57c-32.57-4.34-49.1-6.98-82.51-12.07
					c1.94-40.67,5.11-60.63,16.08-98.88C884.04-424.38,899.64-422.96,930.52-420.73z"/>
				<path class="st1" d="M891.59-518.54c-20.27,34.71-28.02,53.18-38.98,91.42c-31.43-2.73-47.28-4.18-79.15-6.51
					c11.83-36.23,19.4-53.83,37.12-87.21C843.09-520.05,859.3-519.52,891.59-518.54z"/>
				<path class="st1" d="M1047.03-599.74c-37.21,30.53-51.98,47.43-75.04,83.44c-32.01-0.73-48.1-1.25-80.39-2.23
					c20.27-34.71,32.74-51.13,62.58-81.2C991.31-599.74,1009.88-599.74,1047.03-599.74z"/>
				<path class="st1" d="M1319.36,1241.47c-27.71,34.95-44.6,52.8-86.61,89.55c-37.14,0-55.72,0-92.86,0
					c36.9-32.35,52-48.02,77.15-78.62C1257.79,1248.39,1278.21,1246.16,1319.36,1241.47z"/>
				<path class="st1" d="M1267.23,1177.77c-15.33,29.16-25.05,44.03-50.19,74.63c-40.75,4.01-61.04,5.83-101.66,8.9
					c22.84-27.05,32.01-40.16,46.91-65.78C1204.17,1189.39,1225.07,1185.76,1267.23,1177.77z"/>
				<path class="st1" d="M1401.65,1073.66c-6.94,32.4-12.14,48.81-28.16,82.31c-42.94,9.37-64.11,13.81-106.26,21.8
					c15.33-29.16,20.63-43.39,28.09-71.42C1337.32,1094.36,1358.46,1087.7,1401.65,1073.66z"/>
				<path class="st1" d="M1306.15,1037.34c-1.53,27.22-3.38,40.97-10.84,69c-42.01,11.98-62.76,17.43-104.37,26.6
					c8.24-24.47,10.76-36.44,13.62-60.05C1245.02,1060.63,1265.16,1053.36,1306.15,1037.34z"/>
				<path class="st1" d="M1406.15,915.15c3.4,31.23,4.68,46.88,4.21,78.52c-42.55,18.76-63.23,27.66-104.21,43.67
					c1.53-27.22,0.9-40.64-1.55-67.37C1344.35,949.87,1364.45,938.7,1406.15,915.15z"/>
				<path class="st1" d="M1295.51,903.45c4.5,26.54,6.64,39.8,9.09,66.52c-39.75,20.11-59.19,29.25-98.27,44.68
					c-1.24-23.03-2.83-34.41-6.9-57.15C1237.59,938.82,1256.55,927.76,1295.51,903.45z"/>
				<path class="st1" d="M1385.01,759.04c3.32,31.44,5.86,47.02,10.52,78.18c-41.31,28.43-61.06,41.93-100.02,66.23
					c-4.5-26.54-7.17-39.78-11.77-66.46C1323.03,808.37,1342.98,792.49,1385.01,759.04z"/>
				<path class="st1" d="M1270.19,758.17c6.42,39.77,8.95,52.15,13.55,78.83c-39.29,28.63-58.32,41.66-96.67,63.75
					c-5.61-22.73-9.37-31.2-22.31-77.81C1206.66,800.71,1227.43,787.48,1270.19,758.17z"/>
				<path class="st1" d="M1383.82,603.61c-3.17,26.57-4.24,41.08-3.69,74.14c-45.5,34.75-67.18,51.11-109.94,80.42
					c-6.42-39.77-7.22-57.72-6.38-91.14C1310.97,644.69,1334.72,631.85,1383.82,603.61z"/>
				<path class="st1" d="M1271.99,589.68c-5.22,28.74-7.34,43.93-8.18,77.35c-47.16,22.34-70.32,31.99-117.09,47.46
					c-2.13-40.39-0.65-59.09,4.23-94.69C1199.51,611.09,1223.51,605.02,1271.99,589.68z"/>
				<path class="st1" d="M1406.84,492.07c-4.73,19.31-7.55,29.24-12.48,51.23c-49.62,21.72-73.89,31.04-122.37,46.38
					c5.22-28.74,8.81-42.01,15.53-67.73C1335.15,513.39,1358.86,507.48,1406.84,492.07z"/>
				<path class="st1" d="M1303.19,459.67c-5.34,24.38-8.95,36.56-15.67,62.28c-47.63,8.57-71.39,11.16-119.58,13.32
					c8.08-32.26,12.76-47.61,20.24-77.96C1234.75,461.25,1257.66,461.91,1303.19,459.67z"/>
				<path class="st1" d="M1417.99,397.83c1.58,19.65,0.92,28.8-1.64,47.33c-45.09,9.56-67.63,12.27-113.16,14.51
					c5.34-24.38,7.54-36.3,8.61-61.01C1354.92,402.07,1376.11,402.21,1417.99,397.83z"/>
				<path class="st1" d="M1306.14,334.76c6.08,26.7,6.73,39.2,5.66,63.9c-43.12-3.41-65-6.98-109.63-16.34
					c3.08-29.87,3.36-44.75-1.77-75.59C1243.69,320.6,1264.84,326.63,1306.14,334.76z"/>
				<path class="st1" d="M1378,282.87c15.73,27.6,21.17,39.77,28.84,62.44c-39.26,0.12-59.41-2.41-100.71-10.55
					c-6.08-26.69-11.03-40.61-27.14-70.97C1319.98,275.52,1339.85,279.88,1378,282.87z"/>
				<path class="st1" d="M1210.19,164.01c31.8,45.34,52.69,69.43,68.81,99.79c-40.99-11.72-62.17-19.63-105.62-36.85
					c-17.13-33.24-39.97-54.9-71.74-97.47C1146.22,145.5,1168,152.93,1210.19,164.01z"/>
				<path class="st1" d="M1233.83,61.32c30.63,49.29,46.93,73.73,78.39,120.9c-39.36-2.96-59.84-7.13-102.03-18.21
					c-31.8-45.34-47.44-68.82-76.05-116.24C1175.2,56.45,1195.2,59.61,1233.83,61.32z"/>
				<path class="st1" d="M1069.33-71.92c22.82,48.1,36.22,72.28,64.82,119.7c-41.05-8.67-62.17-14.63-105.28-27.54
					c-26.21-44.61-37.86-67.38-57.07-112.78C1011.64-82.72,1031.19-78.22,1069.33-71.92z"/>
				<path class="st1" d="M1106.67-186.76c17.74,48.91,29.47,73.93,55.53,123.8c-36.11-0.5-54.74-2.67-92.87-8.96
					c-22.82-48.1-32.68-72.27-47.13-119.65C1056.77-187.48,1073.71-186.22,1106.67-186.76z"/>
				<path class="st1" d="M999.22-307.69c3.5,45.27,8.52,68.72,22.97,116.11c-34.58-4.09-52.26-7.22-88.2-14.14
					c-10.79-44.93-14.02-67.23-14.95-110.44C951.61-311.82,967.68-309.9,999.22-307.69z"/>
				<path class="st1" d="M1081.36-417.44c-10.11,42.33-10.44,64.83-4.75,111.23c-30.33,1.26-45.84,0.74-77.38-1.48
					c-3.5-45.27-2.4-67.31,7.65-109.06C1037.06-415.94,1051.98-415.93,1081.36-417.44z"/>
				<path class="st1" d="M1051.6-515.27c-26.17,36.83-34.69,56.77-44.73,98.52c-30.19-0.81-45.48-1.76-76.35-3.98
					c10.35-40.24,18.41-59.56,41.47-95.57C1004-515.57,1019.93-515.29,1051.6-515.27z"/>
				<path class="st1" d="M1232.75-599.74c-52.94,29.56-72.81,46.45-102.46,83.17c-31.27,1.14-47.01,1.32-78.68,1.3
					c26.17-36.83,43.4-53.96,88.29-84.47C1177.03-599.74,1195.6-599.74,1232.75-599.74z"/>
				<path class="st1" d="M1492.98,1227.08c-24.06,40.89-38.6,61.63-74.51,103.94c-37.14,0-55.72,0-92.86,0
					c41-40.66,57.5-60.51,84.67-99.52C1443.84,1228.69,1460.33,1227.89,1492.98,1227.08z"/>
				<path class="st1" d="M1463.61,1135.69c-15.93,37.69-26.16,56.79-53.33,95.81c-33.56,2.81-49.77,5.28-90.92,9.97
					c27.71-34.95,38.1-51.99,54.13-85.5C1416.42,1146.6,1431.84,1141.51,1463.61,1135.69z"/>
				<path class="st1" d="M1566.95,1028.06c-7,38.9-11.9,58.51-26.32,98.26c-29.95,1.84-45.25,3.54-77.02,9.36
					c15.93-37.69,21.19-56.21,28.45-92.9C1523.45,1033.78,1538.28,1031.09,1566.95,1028.06z"/>
				<path class="st1" d="M1502.09,951.98c-1.19,36.01-2.76,54.12-10.03,90.81c-31.39,9.01-47.22,16.82-90.41,30.87
					c6.94-32.4,8.25-48.34,8.72-79.99C1452.92,974.91,1470.01,964.29,1502.09,951.98z"/>
				<path class="st1" d="M1577.75,836.22c1.21,38.02,1.52,57.05-0.27,95.37c-28.44,4.34-43.32,8.08-75.4,20.39
					c1.19-36.01,0.37-53.86-1.94-89.52C1533.58,846.77,1548.85,841.95,1577.75,836.22z"/>
				<path class="st1" d="M1492.68,773.41c3.22,35.63,5.15,53.39,7.46,89.05c-33.44,15.68-52.28,29.14-93.99,52.69
					c-3.4-31.23-5.96-46.76-10.63-77.92C1436.84,808.79,1457.57,792.49,1492.68,773.41z"/>
				<path class="st1" d="M1569.65,646.01c0.56,38.25,1.66,57.25,3.65,95.25c-29.67,7.14-45.5,13.06-80.62,32.14
					c-3.22-35.63-4.96-53.46-6.51-89.38C1522.91,661.55,1539.26,654.54,1569.65,646.01z"/>
				<path class="st1" d="M1485.56,599.76c-0.57,27.72-0.95,48.33,0.61,84.26c-36.74,22.47-59.14,41.58-101.16,75.02
					c-3.32-31.44-4.33-48.24-4.88-81.3C1425.63,643,1448.19,623.16,1485.56,599.76z"/>
				<path class="st1" d="M1572.73,503.04c-1.97,20.34-2.73,31.47-2.72,56.92c-30.56,9.06-47.07,16.41-84.44,39.8
					c0.57-27.72,1.75-39.72,4.63-61.48C1526.58,518.18,1542.73,511.6,1572.73,503.04z"/>
				<path class="st1" d="M1498.74,489.44c-3.69,17.61-5.65,27.08-8.54,48.84c-36.39,20.1-57.27,37.08-106.38,65.33
					c3.17-26.57,5.61-38.32,10.54-60.31C1443.99,521.58,1463.56,506.98,1498.74,489.44z"/>
				<path class="st1" d="M1584.97,417.83c-2.06,14.77-3.51,22.34-6.18,39.12c-29.2,8.79-44.88,14.95-80.06,32.48
					c3.69-17.61,5.68-25.45,8.67-40.72C1541.37,433.29,1556.56,427.31,1584.97,417.83z"/>
				<path class="st1" d="M1512.41,411.61c-0.77,14.73-2.02,21.85-5.01,37.11c-33.96,15.43-52.58,27.93-100.56,43.35
					c4.73-19.31,6.96-28.38,9.51-46.91C1461.45,435.6,1479.46,425.15,1512.41,411.61z"/>
				<path class="st1" d="M1584.67,344.99c3.04,15.4,3.49,22.5,3.34,36.81c-27.82,10.38-42.64,16.27-75.6,29.81
					c0.77-14.73,0.53-22.03-2.43-38.02C1542.36,362,1557.01,356.21,1584.67,344.99z"/>
				<path class="st1" d="M1496.33,330.14c8.21,19.06,10.69,27.45,13.65,43.44c-32.37,11.59-50.11,19.85-91.99,24.24
					c-1.58-19.65-3.48-29.84-11.15-52.51C1446.1,345.19,1463.9,339.47,1496.33,330.14z"/>
				<path class="st1" d="M1545.9,253.55c13.33,22.21,18.28,31.95,25.82,49.98c-28.14,11.76-42.96,17.29-75.39,26.61
					c-8.21-19.06-13.69-29.44-28.66-53.38C1501.02,270.26,1516.43,265.28,1545.9,253.55z"/>
				<path class="st1" d="M1407.33,179.28c28.98,47.02,45.38,73.54,60.35,97.48c-33.35,6.5-51.52,9.1-89.68,6.11
					c-15.73-27.6-34.33-53.48-65.78-100.65C1351.58,185.18,1371.13,184.07,1407.33,179.28z"/>
				<path class="st1" d="M1429.88,43.6c25.08,47.23,38.31,70.69,63.42,116.24c-32.79,10.41-49.78,14.65-85.97,19.44
					c-28.98-47.02-44.25-71.33-73.19-120.3C1373.98,55.39,1392.95,52.01,1429.88,43.6z"/>
				<path class="st1" d="M1265.74-64.4c25.14,49.48,39.45,74.4,68.39,123.38c-39.85,3.59-61.67,4.06-100.3,2.35
					c-30.63-49.29-45.58-74.41-71.64-124.28C1198.31-62.46,1222.52-62.19,1265.74-64.4z"/>
				<path class="st1" d="M1323.46-193.65c15.33,46.84,25.29,70.72,47.11,118.38c-40.79,6.23-61.61,8.65-104.83,10.87
					c-25.14-49.48-36.6-74.28-54.17-122.8C1257.36-188.07,1279.62-189.56,1323.46-193.65z"/>
				<path class="st1" d="M1181.06-305.78c6.22,46.1,12.95,70.06,30.52,118.58c-45.79,0.87-71.95-0.11-104.91,0.44
					c-17.74-48.91-24.38-73.06-30.07-119.45C1106.93-307.47,1134.06-306.01,1181.06-305.78z"/>
				<path class="st1" d="M1298.12-416.43c-7.35,41.44-7.11,63.25-1.5,108.02c-45.54,2.18-68.56,2.86-115.56,2.63
					c-6.22-46.1-6.34-68.49,2.55-110.71C1229.93-415.61,1252.77-415.7,1298.12-416.43z"/>
				<path class="st1" d="M1228.65-515.69c-27.77,36.89-36.15,56.98-45.04,99.2c-46.32-0.88-72.87-2.45-102.25-0.94
					c10.11-42.33,19.28-62.41,48.93-99.13C1161.55-517.71,1185.43-516.57,1228.65-515.69z"/>
				<path class="st1" d="M1418.46-599.74c-42.94,31.05-58.89,48.29-82.42,85.16c-42.73-0.07-64.18-0.24-107.39-1.12
					c27.77-36.89,46.53-53.94,96.96-84.05C1362.75-599.74,1381.32-599.74,1418.46-599.74z"/>
				<path class="st1" d="M1653.45,1229.99c-15.88,39.95-25.48,60.13-49.26,101.02c-37.14,0-55.72,0-92.86,0
					c30.08-42.21,42.26-62.98,62.46-104.01C1605.83,1227.67,1621.71,1228.35,1653.45,1229.99z"/>
				<path class="st1" d="M1613.86,1125.64c-12.17,40.09-19.88,60.32-40.08,101.36c-32.04-0.67-48.16-0.74-80.81,0.08
					c24.06-40.89,33.23-61,47.65-100.75C1570.58,1124.48,1585.13,1124.52,1613.86,1125.64z"/>
				<path class="st1" d="M1701.94,1033.85c-4.5,38.63-7.69,58.04-17.14,97.24c-28.12-3.06-42.21-4.32-70.94-5.45
					c12.17-40.09,16.32-59.91,22.3-99.29C1663.01,1027.77,1676.02,1029.52,1701.94,1033.85z"/>
				<path class="st1" d="M1645.31,928.57c-1.64,38.89-3.16,58.41-9.14,97.79c-26.85-1.41-40.54-1.33-69.21,1.7
					c7-38.9,8.74-58.15,10.53-96.47C1605.93,927.25,1619.29,926.98,1645.31,928.57z"/>
				<path class="st1" d="M1708.32,842.49c0.97,38.04,1.26,57.07,0.23,95.31c-24.78-5.46-37.23-7.65-63.24-9.23
					c1.64-38.89,1.45-58.23,0.59-96.87C1671.76,833.37,1684,835.96,1708.32,842.49z"/>
				<path class="st1" d="M1642.55,735.16c1.51,38.62,2.49,57.89,3.35,96.53c-25.86-1.68-39.24-1.2-68.14,4.53
					c-1.21-38.02-2.47-56.97-4.45-94.96C1602.97,734.12,1616.52,733.41,1642.55,735.16z"/>
				<path class="st1" d="M1702.1,652.22c0.54,38.19,1.35,57.21,2.84,95.23c-24.18-7.57-36.36-10.54-62.38-12.29
					c-1.51-38.62-2.35-57.94-2.67-96.77C1666.02,640.23,1678.11,643.59,1702.1,652.22z"/>
				<path class="st1" d="M1640.23,551.45c0.24,25.57-0.67,48.11-0.35,86.94c-26.14-1.84-39.83-0.91-70.23,7.62
					c-0.56-38.25,0.37-60.6,0.35-86.05C1600.56,550.91,1614.23,549.81,1640.23,551.45z"/>
				<path class="st1" d="M1703.2,501.43c-1.12,23.86-1.52,36.42-1.31,63.68c-23.7-8.69-35.65-12.03-61.66-13.67
					c-0.23-25.57,0.29-37.02,1.71-58.33C1667.68,493.27,1679.58,495.41,1703.2,501.43z"/>
				<path class="st1" d="M1646.44,443.82c-2,18.35-3.08,27.99-4.5,49.3c-25.74-0.15-39.23,1.36-69.22,9.92
					c1.97-20.34,3.4-29.3,6.07-46.09C1608,448.17,1621.19,445.88,1646.44,443.82z"/>
				<path class="st1" d="M1710.36,393.15c-1.17,20.14-2.04,30.34-3.62,51.82c-23.33-2.65-35.05-3.22-60.3-1.16
					c2-18.34,3.1-26.83,4.59-43.5C1675.79,395.58,1687.34,394.35,1710.36,393.15z"/>
				<path class="st1" d="M1653.01,359.39c0.09,16.28-0.48,24.25-1.98,40.92c-24.76,4.73-37.66,8.04-66.06,17.52
					c2.06-14.77,2.88-21.72,3.04-36.03C1615.83,371.42,1628.53,367.01,1653.01,359.39z"/>
				<path class="st1" d="M1709.16,293.12c2.23,20.56,2.63,30.44,2.72,50.28c-22.92,5.25-34.4,8.38-58.88,16
					c-0.09-16.28-0.58-24.38-3.34-41.57C1674.29,307.38,1685.91,302.37,1709.16,293.12z"/>
				<path class="st1" d="M1638.32,272.37c6.5,19.38,8.59,28.26,11.35,45.45c-24.62,10.44-37.34,15.95-65,27.17
					c-3.04-15.4-5.42-23.43-12.96-41.46C1599.86,291.77,1612.92,285.34,1638.32,272.37z"/>
				<path class="st1" d="M1682.31,180.68c9.09,25.1,12.49,36.74,17.71,59.06c-24.22,12.94-36.3,19.67-61.7,32.63
					c-6.5-19.38-10.74-29.68-22.07-52.55C1643.29,204.92,1656.27,196.75,1682.31,180.68z"/>
				<path class="st1" d="M1572.36,128.99c20.85,43.43,32.56,67.97,43.89,90.84c-27.04,14.91-40.87,22-70.35,33.72
					c-13.33-22.21-27.49-48.16-52.6-93.71C1526.09,149.43,1541.69,142.91,1572.36,128.99z"/>
				<path class="st1" d="M1606.32-11.99c16.36,42.08,24.99,63.01,41.37,103.97c-29.81,15.33-44.67,23.08-75.33,37.01
					c-20.85-43.43-31.83-65.71-52.66-110.54C1554.8,7.02,1571.94,0.64,1606.32-11.99z"/>
				<path class="st1" d="M1470.46-94.29c18.11,45.19,28.4,67.91,49.23,112.74c-35.11,11.42-52.89,16.75-89.82,25.16
					c-25.08-47.23-37.48-71.21-59.3-118.87C1411.37-81.5,1431.19-85.55,1470.46-94.29z"/>
				<path class="st1" d="M1537.2-223.11c9.85,41.81,16.31,63.03,30.5,105.4c-38.66,9.74-57.96,14.68-97.23,23.42
					c-18.11-45.19-26.37-67.82-39.07-112.32C1474.02-212.71,1495.06-216.21,1537.2-223.11z"/>
				<path class="st1" d="M1409.22-315.93c4.6,42.77,9.48,64.81,22.18,109.31c-42.63,6.09-64.09,8.89-107.93,12.97
					c-15.33-46.84-21.24-70-26.84-114.76C1342.16-310.59,1364.59-312.24,1409.22-315.93z"/>
				<path class="st1" d="M1522.13-424.58c-5.26,38.22-5.29,58.06-1.91,98.49c-44.26,4.29-66.37,6.47-111,10.16
					c-4.6-42.77-4.76-63.69,1.44-103.69C1455.4-421.36,1477.63-422.45,1522.13-424.58z"/>
				<path class="st1" d="M1442.45-515.1c-19.68,36.2-25.59,55.46-31.79,95.47c-44.74,1.73-67.19,2.47-112.54,3.2
					c7.35-41.44,14.39-61.28,37.92-98.15C1378.77-514.51,1400.02-514.66,1442.45-515.1z"/>
				<path class="st1" d="M1604.18-599.74c-28.99,31.29-39.81,48.08-55.86,83.25c-42.3,0.63-63.45,0.96-105.87,1.39
					c19.68-36.2,33.01-53.3,68.87-84.64C1548.47-599.74,1567.04-599.74,1604.18-599.74z"/>
				<path class="st1" d="M1812.33,1240.06c-7.06,36.16-11.42,54.33-22.43,90.96c-37.14,0-55.72,0-92.86,0
					c17.32-38.86,24.27-58.09,35.67-96.25C1764.44,1236.87,1780.31,1238.01,1812.33,1240.06z"/>
				<path class="st1" d="M1754.95,1140.11c-6.58,37.59-10.84,56.5-22.24,94.65c-31.73-2.1-47.53-3.14-79.27-4.78
					c15.88-39.95,21.9-59.7,31.36-98.9C1712.92,1134.15,1726.85,1136.13,1754.95,1140.11z"/>
				<path class="st1" d="M1832.17,1061.09c-1.37,35.49-2.52,53.29-6.37,89.07c-28.68-3.88-42.75-6.06-70.85-10.05
					c6.58-37.59,8.71-56.25,11.58-93.41C1792.42,1052.41,1805.4,1055.54,1832.17,1061.09z"/>
				<path class="st1" d="M1770.21,954.19c-0.26,36.87-0.81,55.35-3.68,92.51c-25.9-5.7-38.66-8.53-64.59-12.86
					c4.5-38.63,5.58-57.8,6.61-96.04C1733.33,943.27,1745.46,946.88,1770.21,954.19z"/>
				<path class="st1" d="M1830.96,884.53c1.37,35.2,1.95,52.8,2.32,88.1c-25.91-7.1-38.32-11.13-63.07-18.44
					c0.26-36.87-0.21-55.24-1.45-91.96C1793.04,871.06,1805.23,875.94,1830.96,884.53z"/>
				<path class="st1" d="M1764.94,770.47c1.63,36.71,2.58,55.04,3.81,91.76c-24.28-8.83-36.12-13.21-60.44-19.74
					c-0.97-38.04-1.89-57.02-3.38-95.04C1729.12,755.02,1740.82,760.14,1764.94,770.47z"/>
				<path class="st1" d="M1823.44,708.5c1.15,35.27,2,52.87,3.62,88.06c-25.87-10.03-38-15.76-62.12-26.09
					c-1.63-36.71-2.49-55.07-3.41-91.9C1785.46,690.42,1797.49,697,1823.44,708.5z"/>
				<path class="st1" d="M1760.61,591.86c0.06,29.72,0.01,49.87,0.92,86.71c-23.92-11.85-35.46-17.72-59.44-26.35
					c-0.54-38.19,0-59.84-0.21-87.1C1725.59,573.81,1736.96,579.76,1760.61,591.86z"/>
				<path class="st1" d="M1823.23,544.46c-0.77,30.43-1.08,45.97-1.19,78.1c-25.87-11.86-37.78-18.61-61.43-30.71
					c-0.06-29.72,0.3-43.78,1.23-70.95C1785.5,529.99,1797.42,535.17,1823.23,544.46z"/>
				<path class="st1" d="M1764.76,455.37c-1.28,25.39-1.97,38.37-2.91,65.53c-23.65-9.08-35.02-13.44-58.65-19.47
					c1.11-23.86,1.97-34.98,3.54-56.46C1730.07,447.62,1741.34,450.04,1764.76,455.37z"/>
				<path class="st1" d="M1827.87,397.8c-0.8,28.58-1.34,42.92-2.34,72.17c-25.54-6-37.36-9.26-60.78-14.6
					c1.28-25.39,1.98-37.67,2.96-62.05C1790.9,394.45,1802.62,395.55,1827.87,397.8z"/>
				<path class="st1" d="M1769.12,332.81c-0.03,24.15-0.42,36.12-1.4,60.51c-23.18-1.13-34.34-1.37-57.36-0.17
					c1.17-20.14,1.62-29.92,1.53-49.76C1734.81,338.15,1745.96,336.1,1769.12,332.81z"/>
				<path class="st1" d="M1828.33,255.26c0.9,28.78,1,42.98,0.83,71.4c-25.18,1.71-36.89,2.87-60.05,6.15
					c0.03-24.15-0.22-36.2-1.79-60.9C1790.88,264.28,1802.8,260.88,1828.33,255.26z"/>
				<path class="st1" d="M1760.72,208.7c3.82,26.01,5.03,38.53,6.6,63.22c-23.55,7.64-34.91,11.95-58.16,21.2
					c-2.23-20.56-3.91-31.06-9.14-53.38C1724.25,226.8,1736.13,220.39,1760.72,208.7z"/>
				<path class="st1" d="M1815.97,106.52c4.33,31.06,5.92,46.13,8.33,75.79c-26.52,9.21-38.98,14.7-63.57,26.39
					c-3.82-26.01-6.32-39.38-13.03-67.48C1774.18,126.04,1787.59,118.76,1815.97,106.52z"/>
				<path class="st1" d="M1722.48,54.1c11.87,38.44,18.49,59.02,25.2,87.12c-26.49,15.17-39.33,23.41-65.37,39.47
					c-9.09-25.1-18.25-47.74-34.63-88.7C1677.5,76.65,1692.25,68.72,1722.48,54.1z"/>
				<path class="st1" d="M1780.93-70.59c7.51,36.72,11.49,55.03,19.01,91.2c-31.94,11.82-47.22,18.86-77.46,33.49
					c-11.87-38.44-18.14-57.99-30-97.27C1727.22-55.19,1744.73-60.98,1780.93-70.59z"/>
				<path class="st1" d="M1664.54-141.76c10.23,39.49,16.08,59.31,27.94,98.59c-34.74,12.02-51.79,18.56-86.17,31.18
					c-16.36-42.08-24.44-63.36-38.62-105.72C1606.36-127.46,1625.58-132.52,1664.54-141.76z"/>
				<path class="st1" d="M1749.72-254.57c4.26,36.59,7.15,55.04,13.58,91.91c-40.18,7.23-59.78,11.67-98.75,20.91
					c-10.23-39.49-14.86-59.26-21.85-98.34C1685.08-246.59,1706.36-249.69,1749.72-254.57z"/>
				<path class="st1" d="M1630.99-336.63c2.12,38.04,4.73,57.45,11.71,96.53c-42.38,6.49-63.36,10.09-105.5,16.99
					c-9.85-41.81-13.61-62.55-16.98-102.98C1564.48-330.38,1586.54-332.64,1630.99-336.63z"/>
				<path class="st1" d="M1745.53-433.74c-3.3,34.79-3.65,52.55-2.63,88.46c-45.18,2.78-67.47,4.66-111.91,8.65
					c-2.12-38.04-1.9-56.78,2.46-93.16C1678.07-431.72,1700.42-432.61,1745.53-433.74z"/>
				<path class="st1" d="M1654.12-518.01c-12.45,34.1-16.31,51.84-20.67,88.23c-44.62,1.93-66.82,3.07-111.32,5.2
					c5.26-38.22,10.14-56.74,26.19-91.91C1590.63-517.12,1611.76-517.48,1654.12-518.01z"/>
				<path class="st1" d="M1789.9-599.74c-15.17,31.33-20.91,47.57-29.6,80.84c-42.61,0.13-63.81,0.36-106.18,0.89
					c12.45-34.1,20.76-50.55,42.92-81.73C1734.18-599.74,1752.76-599.74,1789.9-599.74z"/>
				<path class="st1" d="M1975.62,1247.07c0,33.58,0,50.37,0,83.95c-37.14,0-55.72,0-92.86,0c5.13-34.69,7.13-51.97,10.29-86.43
					C1925.66,1246.07,1942.12,1246.65,1975.62,1247.07z"/>
				<path class="st1" d="M1898.86,1158.68c-1.55,34.27-2.65,51.44-5.81,85.9c-32.61-1.49-48.7-2.48-80.72-4.53
					c7.06-36.16,9.63-54.12,13.48-89.9C1854.49,1154.04,1869,1155.92,1898.86,1158.68z"/>
				<path class="st1" d="M1975.62,1079.18c0,33.58,0,50.37,0,83.95c-31.64-0.62-46.89-1.68-76.76-4.44
					c1.55-34.27,1.94-51.36,2.26-85.49C1929.66,1077.07,1944.41,1078.52,1975.62,1079.18z"/>
				<path class="st1" d="M1900.75,988.01c0.55,34.03,0.69,51.06,0.37,85.19c-28.54-3.87-42.18-6.55-68.95-12.1
					c1.37-35.49,1.47-53.17,1.1-88.47C1859.18,979.73,1872.48,983.15,1900.75,988.01z"/>
				<path class="st1" d="M1975.62,911.28c0,33.58,0,50.37,0,83.95c-31.83-0.58-46.6-2.36-74.87-7.22c-0.55-34.03-1.03-51.02-2.08-85
					C1927.35,908.78,1942.49,910.86,1975.62,911.28z"/>
				<path class="st1" d="M1895.79,818.07c1.18,33.98,1.82,50.96,2.87,84.94c-28.68-5.78-41.97-9.9-67.71-18.48
					c-1.36-35.2-2.27-52.78-3.89-87.97C1852.94,806.59,1866.38,811.4,1895.79,818.07z"/>
				<path class="st1" d="M1975.62,743.39c0,33.58,0,50.37,0,83.95c-34.75-0.24-50.41-2.6-79.83-9.27
					c-1.18-33.98-1.79-50.96-2.74-84.98C1923.14,740.66,1939.31,743.32,1975.62,743.39z"/>
				<path class="st1" d="M1891.84,648.13c-0.16,33.69,0.28,50.94,1.22,84.96c-30.09-7.57-43.66-13.09-69.61-24.59
					c-1.15-35.27-1.5-53.8-1.39-85.93C1847.92,634.43,1861.5,640.15,1891.84,648.13z"/>
				<path class="st1" d="M1975.62,575.5c0,33.58,0,50.37,0,83.95c-37.06-0.46-53.44-3.33-83.78-11.32
					c0.17-33.69,0.38-50.27,0.87-83.11C1922.83,571.7,1939.05,574.27,1975.62,575.5z"/>
				<path class="st1" d="M1894.14,483.71c-0.61,32.25-0.93,48.47-1.43,81.31c-30.12-6.68-43.66-11.26-69.47-20.56
					c0.77-30.43,1.3-45.25,2.3-74.49C1851.07,475.98,1864.46,479.06,1894.14,483.71z"/>
				<path class="st1" d="M1975.62,407.61c0,33.58,0,50.37,0,83.95c-35.84-1.28-51.8-3.19-81.48-7.84
					c0.61-32.25,0.94-48.23,1.45-80.14C1924.82,405.73,1940.5,406.74,1975.62,407.61z"/>
				<path class="st1" d="M1896.51,323.94c-0.19,31.84-0.41,47.72-0.92,79.63c-29.23-2.16-42.46-3.52-67.71-5.77
					c0.8-28.58,1.13-42.72,1.29-71.14C1854.35,324.95,1867.52,324.47,1896.51,323.94z"/>
				<path class="st1" d="M1975.62,239.72c0,33.58,0,50.37,0,83.95c-34.59-0.25-50.12-0.26-79.11,0.28
					c0.19-31.84,0.2-47.74-0.14-79.76C1925.55,241,1941.12,240.04,1975.62,239.72z"/>
				<path class="st1" d="M1894.63,163.65c1.09,32.46,1.4,48.52,1.74,80.53c-29.18,3.18-42.51,5.46-68.04,11.08
					c-0.9-28.78-1.64-43.29-4.04-72.95C1850.81,173.09,1864.62,169.16,1894.63,163.65z"/>
				<path class="st1" d="M1975.62,71.83c0,33.58,0,50.37,0,83.95c-35.04,0.58-50.98,2.36-80.99,7.87
					c-1.09-32.45-1.83-48.8-3.88-81.95C1922.44,74.41,1939.17,72.1,1975.62,71.83z"/>
				<path class="st1" d="M1883.26-3.22c3.5,34.44,5.43,51.76,7.49,84.91c-31.69,7.28-46.41,12.58-74.78,24.83
					c-4.33-31.06-8.5-49.75-16.02-85.91C1831.89,8.79,1848.34,3.67,1883.26-3.22z"/>
				<path class="st1" d="M1975.62-96.06c0,33.58,0,50.37,0,83.95c-39.18-0.13-57.44,2-92.36,8.9c-3.5-34.44-5.36-51.78-8.86-86.51
					C1913.15-95.12,1933.21-96.69,1975.62-96.06z"/>
				<path class="st1" d="M1866.22-176.67c2.95,34.8,4.68,52.22,8.17,86.94c-38.76,5.4-57.27,9.52-93.47,19.14
					c-7.51-36.72-11.22-55.21-17.64-92.07C1803.48-169.9,1823.91-172.95,1866.22-176.67z"/>
				<path class="st1" d="M1975.62-263.96c0,33.58,0,50.37,0,83.95c-45.35-1.3-67.08-0.38-109.39,3.34
					c-2.95-34.8-4.27-52.2-6.14-86.86C1905.14-265.61,1928.13-265.9,1975.62-263.96z"/>
				<path class="st1" d="M1857.32-349.79c0.25,34.31,0.89,51.6,2.76,86.26c-45.06,2.08-67.01,4.07-110.37,8.96
					c-4.26-36.59-5.8-54.8-6.82-90.7C1788.07-348.06,1810.87-349.11,1857.32-349.79z"/>
				<path class="st1" d="M1975.62-431.85c0,33.58,0,50.37,0,83.95c-48.28-2.34-71.85-2.56-118.3-1.89
					c-0.25-34.31,0.05-51.37,1.96-85.14C1905.24-434.65,1928.44-434.13,1975.62-431.85z"/>
				<path class="st1" d="M1867.31-518.41c-4.61,33-6.12,49.73-8.03,83.49c-45.96-0.28-68.65,0.06-113.75,1.19
					c3.3-34.79,6.07-51.9,14.77-85.17C1802.91-519.03,1824.28-518.99,1867.31-518.41z"/>
				<path class="st1" d="M1975.62-599.74c0,33.58,0,50.37,0,83.95c-43.64-1.58-65.27-2.05-108.31-2.62
					c4.61-33,7.61-49.3,15.45-81.32C1919.9-599.74,1938.47-599.74,1975.62-599.74z"/>
			</g>
		</g>
	</g>
</g>
</svg>
